<mxfile host="app.diagrams.net" modified="2023-08-27T17:08:34.650Z" agent="Mozilla/5.0 (Windows NT 10.0; Win64; x64) AppleWebKit/537.36 (KHTML, like Gecko) Chrome/116.0.0.0 Safari/537.36" etag="cNDcgUH2pxepbXd9u1F5" version="21.6.9" type="device">
  <diagram name="PÃ¡gina-1" id="iEaHNIIJkxejVf-zIs_g">
    <mxGraphModel dx="2074" dy="1231" grid="1" gridSize="10" guides="1" tooltips="1" connect="1" arrows="1" fold="1" page="1" pageScale="1" pageWidth="393" pageHeight="393" math="0" shadow="0">
      <root>
        <mxCell id="0" />
        <mxCell id="1" parent="0" />
        <mxCell id="t8fxPtUpH1gHO733P13p-430" value="" style="rounded=0;whiteSpace=wrap;html=1;" parent="1" vertex="1">
          <mxGeometry x="74.5" y="400" width="685.5" height="240" as="geometry" />
        </mxCell>
        <mxCell id="t8fxPtUpH1gHO733P13p-428" value="" style="rounded=0;whiteSpace=wrap;html=1;" parent="1" vertex="1">
          <mxGeometry x="74.5" y="150" width="685.5" height="240" as="geometry" />
        </mxCell>
        <mxCell id="t8fxPtUpH1gHO733P13p-426" value="" style="rounded=0;whiteSpace=wrap;html=1;" parent="1" vertex="1">
          <mxGeometry x="74.5" y="-100" width="685.5" height="240" as="geometry" />
        </mxCell>
        <mxCell id="t8fxPtUpH1gHO733P13p-424" value="" style="rounded=0;whiteSpace=wrap;html=1;" parent="1" vertex="1">
          <mxGeometry x="74.5" y="-350" width="685.5" height="240" as="geometry" />
        </mxCell>
        <mxCell id="t8fxPtUpH1gHO733P13p-1" value="" style="whiteSpace=wrap;html=1;aspect=fixed;" parent="1" vertex="1">
          <mxGeometry x="148" y="-290" width="40" height="40" as="geometry" />
        </mxCell>
        <mxCell id="t8fxPtUpH1gHO733P13p-4" value="Q&lt;br&gt;q" style="text;html=1;strokeColor=none;fillColor=none;align=center;verticalAlign=middle;whiteSpace=wrap;rounded=0;" parent="1" vertex="1">
          <mxGeometry x="138" y="-285" width="60" height="30" as="geometry" />
        </mxCell>
        <mxCell id="t8fxPtUpH1gHO733P13p-5" value="" style="whiteSpace=wrap;html=1;aspect=fixed;" parent="1" vertex="1">
          <mxGeometry x="188" y="-290" width="40" height="40" as="geometry" />
        </mxCell>
        <mxCell id="t8fxPtUpH1gHO733P13p-6" value="W&lt;br&gt;w" style="text;html=1;strokeColor=none;fillColor=none;align=center;verticalAlign=middle;whiteSpace=wrap;rounded=0;" parent="1" vertex="1">
          <mxGeometry x="178" y="-285" width="60" height="30" as="geometry" />
        </mxCell>
        <mxCell id="t8fxPtUpH1gHO733P13p-7" value="" style="whiteSpace=wrap;html=1;aspect=fixed;" parent="1" vertex="1">
          <mxGeometry x="228" y="-290" width="40" height="40" as="geometry" />
        </mxCell>
        <mxCell id="t8fxPtUpH1gHO733P13p-8" value="E&lt;br&gt;e" style="text;html=1;strokeColor=none;fillColor=none;align=center;verticalAlign=middle;whiteSpace=wrap;rounded=0;" parent="1" vertex="1">
          <mxGeometry x="218" y="-285" width="60" height="30" as="geometry" />
        </mxCell>
        <mxCell id="t8fxPtUpH1gHO733P13p-9" value="" style="whiteSpace=wrap;html=1;aspect=fixed;" parent="1" vertex="1">
          <mxGeometry x="268" y="-290" width="40" height="40" as="geometry" />
        </mxCell>
        <mxCell id="t8fxPtUpH1gHO733P13p-10" value="R&lt;br&gt;r" style="text;html=1;strokeColor=none;fillColor=none;align=center;verticalAlign=middle;whiteSpace=wrap;rounded=0;" parent="1" vertex="1">
          <mxGeometry x="258" y="-285" width="60" height="30" as="geometry" />
        </mxCell>
        <mxCell id="t8fxPtUpH1gHO733P13p-11" value="" style="whiteSpace=wrap;html=1;aspect=fixed;" parent="1" vertex="1">
          <mxGeometry x="305" y="-290" width="40" height="40" as="geometry" />
        </mxCell>
        <mxCell id="t8fxPtUpH1gHO733P13p-12" value="T&lt;br&gt;t" style="text;html=1;strokeColor=none;fillColor=none;align=center;verticalAlign=middle;whiteSpace=wrap;rounded=0;" parent="1" vertex="1">
          <mxGeometry x="295" y="-285" width="60" height="30" as="geometry" />
        </mxCell>
        <mxCell id="t8fxPtUpH1gHO733P13p-13" value="" style="whiteSpace=wrap;html=1;aspect=fixed;" parent="1" vertex="1">
          <mxGeometry x="158" y="-250" width="40" height="40" as="geometry" />
        </mxCell>
        <mxCell id="t8fxPtUpH1gHO733P13p-14" value="A&lt;br&gt;a" style="text;html=1;strokeColor=none;fillColor=none;align=center;verticalAlign=middle;whiteSpace=wrap;rounded=0;" parent="1" vertex="1">
          <mxGeometry x="148" y="-245" width="60" height="30" as="geometry" />
        </mxCell>
        <mxCell id="t8fxPtUpH1gHO733P13p-15" value="" style="whiteSpace=wrap;html=1;aspect=fixed;" parent="1" vertex="1">
          <mxGeometry x="198" y="-250" width="40" height="40" as="geometry" />
        </mxCell>
        <mxCell id="t8fxPtUpH1gHO733P13p-16" value="S&lt;br&gt;s" style="text;html=1;strokeColor=none;fillColor=none;align=center;verticalAlign=middle;whiteSpace=wrap;rounded=0;" parent="1" vertex="1">
          <mxGeometry x="188" y="-245" width="60" height="30" as="geometry" />
        </mxCell>
        <mxCell id="t8fxPtUpH1gHO733P13p-17" value="" style="whiteSpace=wrap;html=1;aspect=fixed;" parent="1" vertex="1">
          <mxGeometry x="238" y="-250" width="40" height="40" as="geometry" />
        </mxCell>
        <mxCell id="t8fxPtUpH1gHO733P13p-18" value="D&lt;br&gt;d" style="text;html=1;strokeColor=none;fillColor=none;align=center;verticalAlign=middle;whiteSpace=wrap;rounded=0;" parent="1" vertex="1">
          <mxGeometry x="228" y="-245" width="60" height="30" as="geometry" />
        </mxCell>
        <mxCell id="t8fxPtUpH1gHO733P13p-19" value="" style="whiteSpace=wrap;html=1;aspect=fixed;" parent="1" vertex="1">
          <mxGeometry x="278" y="-250" width="40" height="40" as="geometry" />
        </mxCell>
        <mxCell id="t8fxPtUpH1gHO733P13p-20" value="F&lt;br&gt;f" style="text;html=1;strokeColor=none;fillColor=none;align=center;verticalAlign=middle;whiteSpace=wrap;rounded=0;" parent="1" vertex="1">
          <mxGeometry x="268" y="-245" width="60" height="30" as="geometry" />
        </mxCell>
        <mxCell id="t8fxPtUpH1gHO733P13p-21" value="" style="whiteSpace=wrap;html=1;aspect=fixed;" parent="1" vertex="1">
          <mxGeometry x="318" y="-250" width="40" height="40" as="geometry" />
        </mxCell>
        <mxCell id="t8fxPtUpH1gHO733P13p-22" value="G&lt;br&gt;g" style="text;html=1;strokeColor=none;fillColor=none;align=center;verticalAlign=middle;whiteSpace=wrap;rounded=0;" parent="1" vertex="1">
          <mxGeometry x="308" y="-245" width="60" height="30" as="geometry" />
        </mxCell>
        <mxCell id="t8fxPtUpH1gHO733P13p-25" value="" style="whiteSpace=wrap;html=1;aspect=fixed;" parent="1" vertex="1">
          <mxGeometry x="178" y="-210" width="40" height="40" as="geometry" />
        </mxCell>
        <mxCell id="t8fxPtUpH1gHO733P13p-26" value="Z&lt;br&gt;z" style="text;html=1;strokeColor=none;fillColor=none;align=center;verticalAlign=middle;whiteSpace=wrap;rounded=0;" parent="1" vertex="1">
          <mxGeometry x="168" y="-205" width="60" height="30" as="geometry" />
        </mxCell>
        <mxCell id="t8fxPtUpH1gHO733P13p-27" value="" style="whiteSpace=wrap;html=1;aspect=fixed;" parent="1" vertex="1">
          <mxGeometry x="218" y="-210" width="40" height="40" as="geometry" />
        </mxCell>
        <mxCell id="t8fxPtUpH1gHO733P13p-28" value="X&lt;br&gt;x" style="text;html=1;strokeColor=none;fillColor=none;align=center;verticalAlign=middle;whiteSpace=wrap;rounded=0;" parent="1" vertex="1">
          <mxGeometry x="208" y="-205" width="60" height="30" as="geometry" />
        </mxCell>
        <mxCell id="t8fxPtUpH1gHO733P13p-29" value="" style="whiteSpace=wrap;html=1;aspect=fixed;" parent="1" vertex="1">
          <mxGeometry x="258" y="-210" width="40" height="40" as="geometry" />
        </mxCell>
        <mxCell id="t8fxPtUpH1gHO733P13p-30" value="C&lt;br&gt;c" style="text;html=1;strokeColor=none;fillColor=none;align=center;verticalAlign=middle;whiteSpace=wrap;rounded=0;" parent="1" vertex="1">
          <mxGeometry x="248" y="-205" width="60" height="30" as="geometry" />
        </mxCell>
        <mxCell id="t8fxPtUpH1gHO733P13p-31" value="" style="whiteSpace=wrap;html=1;aspect=fixed;" parent="1" vertex="1">
          <mxGeometry x="298" y="-210" width="40" height="40" as="geometry" />
        </mxCell>
        <mxCell id="t8fxPtUpH1gHO733P13p-32" value="V&lt;br&gt;v" style="text;html=1;strokeColor=none;fillColor=none;align=center;verticalAlign=middle;whiteSpace=wrap;rounded=0;" parent="1" vertex="1">
          <mxGeometry x="288" y="-205" width="60" height="30" as="geometry" />
        </mxCell>
        <mxCell id="t8fxPtUpH1gHO733P13p-33" value="" style="whiteSpace=wrap;html=1;aspect=fixed;" parent="1" vertex="1">
          <mxGeometry x="338" y="-210" width="40" height="40" as="geometry" />
        </mxCell>
        <mxCell id="t8fxPtUpH1gHO733P13p-34" value="B&lt;br&gt;b" style="text;html=1;strokeColor=none;fillColor=none;align=center;verticalAlign=middle;whiteSpace=wrap;rounded=0;" parent="1" vertex="1">
          <mxGeometry x="328" y="-205" width="60" height="30" as="geometry" />
        </mxCell>
        <mxCell id="t8fxPtUpH1gHO733P13p-35" value="" style="whiteSpace=wrap;html=1;aspect=fixed;" parent="1" vertex="1">
          <mxGeometry x="408" y="-290" width="40" height="40" as="geometry" />
        </mxCell>
        <mxCell id="t8fxPtUpH1gHO733P13p-36" value="Y&lt;br&gt;y" style="text;html=1;strokeColor=none;fillColor=none;align=center;verticalAlign=middle;whiteSpace=wrap;rounded=0;" parent="1" vertex="1">
          <mxGeometry x="398" y="-285" width="60" height="30" as="geometry" />
        </mxCell>
        <mxCell id="t8fxPtUpH1gHO733P13p-37" value="" style="whiteSpace=wrap;html=1;aspect=fixed;" parent="1" vertex="1">
          <mxGeometry x="418" y="-250" width="40" height="40" as="geometry" />
        </mxCell>
        <mxCell id="t8fxPtUpH1gHO733P13p-38" value="H&lt;br&gt;h" style="text;html=1;strokeColor=none;fillColor=none;align=center;verticalAlign=middle;whiteSpace=wrap;rounded=0;" parent="1" vertex="1">
          <mxGeometry x="408" y="-245" width="60" height="30" as="geometry" />
        </mxCell>
        <mxCell id="t8fxPtUpH1gHO733P13p-39" value="" style="whiteSpace=wrap;html=1;aspect=fixed;" parent="1" vertex="1">
          <mxGeometry x="438" y="-210" width="40" height="40" as="geometry" />
        </mxCell>
        <mxCell id="t8fxPtUpH1gHO733P13p-40" value="N&lt;br&gt;n" style="text;html=1;strokeColor=none;fillColor=none;align=center;verticalAlign=middle;whiteSpace=wrap;rounded=0;" parent="1" vertex="1">
          <mxGeometry x="428" y="-205" width="60" height="30" as="geometry" />
        </mxCell>
        <mxCell id="t8fxPtUpH1gHO733P13p-41" value="" style="whiteSpace=wrap;html=1;aspect=fixed;" parent="1" vertex="1">
          <mxGeometry x="448" y="-290" width="40" height="40" as="geometry" />
        </mxCell>
        <mxCell id="t8fxPtUpH1gHO733P13p-42" value="U&lt;br&gt;u" style="text;html=1;strokeColor=none;fillColor=none;align=center;verticalAlign=middle;whiteSpace=wrap;rounded=0;" parent="1" vertex="1">
          <mxGeometry x="438" y="-285" width="60" height="30" as="geometry" />
        </mxCell>
        <mxCell id="t8fxPtUpH1gHO733P13p-43" value="" style="whiteSpace=wrap;html=1;aspect=fixed;" parent="1" vertex="1">
          <mxGeometry x="488" y="-290" width="40" height="40" as="geometry" />
        </mxCell>
        <mxCell id="t8fxPtUpH1gHO733P13p-44" value="I&lt;br&gt;i" style="text;html=1;strokeColor=none;fillColor=none;align=center;verticalAlign=middle;whiteSpace=wrap;rounded=0;" parent="1" vertex="1">
          <mxGeometry x="478" y="-285" width="60" height="30" as="geometry" />
        </mxCell>
        <mxCell id="t8fxPtUpH1gHO733P13p-45" value="" style="whiteSpace=wrap;html=1;aspect=fixed;" parent="1" vertex="1">
          <mxGeometry x="528" y="-290" width="40" height="40" as="geometry" />
        </mxCell>
        <mxCell id="t8fxPtUpH1gHO733P13p-46" value="O&lt;br&gt;o" style="text;html=1;strokeColor=none;fillColor=none;align=center;verticalAlign=middle;whiteSpace=wrap;rounded=0;" parent="1" vertex="1">
          <mxGeometry x="518" y="-285" width="60" height="30" as="geometry" />
        </mxCell>
        <mxCell id="t8fxPtUpH1gHO733P13p-47" value="" style="whiteSpace=wrap;html=1;aspect=fixed;" parent="1" vertex="1">
          <mxGeometry x="568" y="-290" width="40" height="40" as="geometry" />
        </mxCell>
        <mxCell id="t8fxPtUpH1gHO733P13p-48" value="P&lt;br&gt;p" style="text;html=1;strokeColor=none;fillColor=none;align=center;verticalAlign=middle;whiteSpace=wrap;rounded=0;" parent="1" vertex="1">
          <mxGeometry x="558" y="-285" width="60" height="30" as="geometry" />
        </mxCell>
        <mxCell id="t8fxPtUpH1gHO733P13p-50" value="" style="whiteSpace=wrap;html=1;aspect=fixed;" parent="1" vertex="1">
          <mxGeometry x="498" y="-250" width="40" height="40" as="geometry" />
        </mxCell>
        <mxCell id="t8fxPtUpH1gHO733P13p-51" value="K&lt;br&gt;k" style="text;html=1;strokeColor=none;fillColor=none;align=center;verticalAlign=middle;whiteSpace=wrap;rounded=0;" parent="1" vertex="1">
          <mxGeometry x="488" y="-245" width="60" height="30" as="geometry" />
        </mxCell>
        <mxCell id="t8fxPtUpH1gHO733P13p-52" value="" style="whiteSpace=wrap;html=1;aspect=fixed;" parent="1" vertex="1">
          <mxGeometry x="538" y="-250" width="40" height="40" as="geometry" />
        </mxCell>
        <mxCell id="t8fxPtUpH1gHO733P13p-53" value="L&lt;br&gt;l" style="text;html=1;strokeColor=none;fillColor=none;align=center;verticalAlign=middle;whiteSpace=wrap;rounded=0;" parent="1" vertex="1">
          <mxGeometry x="528" y="-245" width="60" height="30" as="geometry" />
        </mxCell>
        <mxCell id="t8fxPtUpH1gHO733P13p-54" value="" style="whiteSpace=wrap;html=1;aspect=fixed;" parent="1" vertex="1">
          <mxGeometry x="578" y="-250" width="40" height="40" as="geometry" />
        </mxCell>
        <mxCell id="t8fxPtUpH1gHO733P13p-55" value=":&lt;br&gt;;" style="text;html=1;strokeColor=none;fillColor=none;align=center;verticalAlign=middle;whiteSpace=wrap;rounded=0;" parent="1" vertex="1">
          <mxGeometry x="568" y="-245" width="60" height="30" as="geometry" />
        </mxCell>
        <mxCell id="t8fxPtUpH1gHO733P13p-57" value="" style="whiteSpace=wrap;html=1;aspect=fixed;" parent="1" vertex="1">
          <mxGeometry x="458" y="-250" width="40" height="40" as="geometry" />
        </mxCell>
        <mxCell id="t8fxPtUpH1gHO733P13p-58" value="J&lt;br&gt;j" style="text;html=1;strokeColor=none;fillColor=none;align=center;verticalAlign=middle;whiteSpace=wrap;rounded=0;" parent="1" vertex="1">
          <mxGeometry x="448" y="-245" width="60" height="30" as="geometry" />
        </mxCell>
        <mxCell id="t8fxPtUpH1gHO733P13p-68" value="" style="whiteSpace=wrap;html=1;aspect=fixed;" parent="1" vertex="1">
          <mxGeometry x="518" y="-210" width="40" height="40" as="geometry" />
        </mxCell>
        <mxCell id="t8fxPtUpH1gHO733P13p-69" value="&amp;lt;&lt;br&gt;," style="text;html=1;strokeColor=none;fillColor=none;align=center;verticalAlign=middle;whiteSpace=wrap;rounded=0;" parent="1" vertex="1">
          <mxGeometry x="508" y="-205" width="60" height="30" as="geometry" />
        </mxCell>
        <mxCell id="t8fxPtUpH1gHO733P13p-70" value="" style="whiteSpace=wrap;html=1;aspect=fixed;" parent="1" vertex="1">
          <mxGeometry x="558" y="-210" width="40" height="40" as="geometry" />
        </mxCell>
        <mxCell id="t8fxPtUpH1gHO733P13p-71" value="&amp;gt;&lt;br&gt;." style="text;html=1;strokeColor=none;fillColor=none;align=center;verticalAlign=middle;whiteSpace=wrap;rounded=0;" parent="1" vertex="1">
          <mxGeometry x="548" y="-205" width="60" height="30" as="geometry" />
        </mxCell>
        <mxCell id="t8fxPtUpH1gHO733P13p-72" value="" style="whiteSpace=wrap;html=1;aspect=fixed;" parent="1" vertex="1">
          <mxGeometry x="598" y="-210" width="40" height="40" as="geometry" />
        </mxCell>
        <mxCell id="t8fxPtUpH1gHO733P13p-73" value="?&lt;br&gt;/" style="text;html=1;strokeColor=none;fillColor=none;align=center;verticalAlign=middle;whiteSpace=wrap;rounded=0;" parent="1" vertex="1">
          <mxGeometry x="588" y="-205" width="60" height="30" as="geometry" />
        </mxCell>
        <mxCell id="t8fxPtUpH1gHO733P13p-74" value="" style="whiteSpace=wrap;html=1;aspect=fixed;" parent="1" vertex="1">
          <mxGeometry x="478" y="-210" width="40" height="40" as="geometry" />
        </mxCell>
        <mxCell id="t8fxPtUpH1gHO733P13p-75" value="M&lt;br&gt;m" style="text;html=1;strokeColor=none;fillColor=none;align=center;verticalAlign=middle;whiteSpace=wrap;rounded=0;" parent="1" vertex="1">
          <mxGeometry x="468" y="-205" width="60" height="30" as="geometry" />
        </mxCell>
        <mxCell id="t8fxPtUpH1gHO733P13p-77" value="Mod1" style="rounded=0;whiteSpace=wrap;html=1;" parent="1" vertex="1">
          <mxGeometry x="90" y="-250" width="68" height="40" as="geometry" />
        </mxCell>
        <mxCell id="t8fxPtUpH1gHO733P13p-78" value="Shift" style="rounded=0;whiteSpace=wrap;html=1;" parent="1" vertex="1">
          <mxGeometry x="90" y="-210" width="89" height="40" as="geometry" />
        </mxCell>
        <mxCell id="t8fxPtUpH1gHO733P13p-79" value="Ctrl" style="rounded=0;whiteSpace=wrap;html=1;" parent="1" vertex="1">
          <mxGeometry x="90" y="-170" width="60" height="40" as="geometry" />
        </mxCell>
        <mxCell id="t8fxPtUpH1gHO733P13p-80" value="Super" style="rounded=0;whiteSpace=wrap;html=1;" parent="1" vertex="1">
          <mxGeometry x="150" y="-170" width="60" height="40" as="geometry" />
        </mxCell>
        <mxCell id="t8fxPtUpH1gHO733P13p-81" value="Alt" style="rounded=0;whiteSpace=wrap;html=1;" parent="1" vertex="1">
          <mxGeometry x="210" y="-170" width="60" height="40" as="geometry" />
        </mxCell>
        <mxCell id="t8fxPtUpH1gHO733P13p-82" value="Mod3" style="rounded=0;whiteSpace=wrap;html=1;" parent="1" vertex="1">
          <mxGeometry x="270" y="-170" width="108" height="40" as="geometry" />
        </mxCell>
        <mxCell id="t8fxPtUpH1gHO733P13p-83" value="" style="whiteSpace=wrap;html=1;aspect=fixed;" parent="1" vertex="1">
          <mxGeometry x="608" y="-290" width="40" height="40" as="geometry" />
        </mxCell>
        <mxCell id="t8fxPtUpH1gHO733P13p-84" value="{&lt;br&gt;[" style="text;html=1;strokeColor=none;fillColor=none;align=center;verticalAlign=middle;whiteSpace=wrap;rounded=0;" parent="1" vertex="1">
          <mxGeometry x="598" y="-285" width="60" height="30" as="geometry" />
        </mxCell>
        <mxCell id="t8fxPtUpH1gHO733P13p-85" value="" style="whiteSpace=wrap;html=1;aspect=fixed;" parent="1" vertex="1">
          <mxGeometry x="618" y="-250" width="40" height="40" as="geometry" />
        </mxCell>
        <mxCell id="t8fxPtUpH1gHO733P13p-86" value="&quot;&lt;br&gt;&#39;" style="text;html=1;strokeColor=none;fillColor=none;align=center;verticalAlign=middle;whiteSpace=wrap;rounded=0;" parent="1" vertex="1">
          <mxGeometry x="608" y="-245" width="60" height="30" as="geometry" />
        </mxCell>
        <mxCell id="t8fxPtUpH1gHO733P13p-87" value="Mod2" style="rounded=0;whiteSpace=wrap;html=1;" parent="1" vertex="1">
          <mxGeometry x="658" y="-250" width="82" height="40" as="geometry" />
        </mxCell>
        <mxCell id="t8fxPtUpH1gHO733P13p-88" value="Space" style="rounded=0;whiteSpace=wrap;html=1;" parent="1" vertex="1">
          <mxGeometry x="438" y="-170" width="108" height="40" as="geometry" />
        </mxCell>
        <mxCell id="t8fxPtUpH1gHO733P13p-89" value="Alt" style="rounded=0;whiteSpace=wrap;html=1;" parent="1" vertex="1">
          <mxGeometry x="546" y="-170" width="60" height="40" as="geometry" />
        </mxCell>
        <mxCell id="t8fxPtUpH1gHO733P13p-90" value="Super" style="rounded=0;whiteSpace=wrap;html=1;" parent="1" vertex="1">
          <mxGeometry x="606" y="-170" width="60" height="40" as="geometry" />
        </mxCell>
        <mxCell id="t8fxPtUpH1gHO733P13p-91" value="Ctrl" style="rounded=0;whiteSpace=wrap;html=1;" parent="1" vertex="1">
          <mxGeometry x="666" y="-170" width="74" height="40" as="geometry" />
        </mxCell>
        <mxCell id="t8fxPtUpH1gHO733P13p-92" value="Shift" style="rounded=0;whiteSpace=wrap;html=1;" parent="1" vertex="1">
          <mxGeometry x="638" y="-210" width="102" height="40" as="geometry" />
        </mxCell>
        <mxCell id="t8fxPtUpH1gHO733P13p-170" value="Tab" style="rounded=0;whiteSpace=wrap;html=1;" parent="1" vertex="1">
          <mxGeometry x="90" y="-290" width="58" height="40" as="geometry" />
        </mxCell>
        <mxCell id="t8fxPtUpH1gHO733P13p-172" value="" style="whiteSpace=wrap;html=1;aspect=fixed;" parent="1" vertex="1">
          <mxGeometry x="648" y="-290" width="40" height="40" as="geometry" />
        </mxCell>
        <mxCell id="t8fxPtUpH1gHO733P13p-173" value="}&lt;br&gt;]" style="text;html=1;strokeColor=none;fillColor=none;align=center;verticalAlign=middle;whiteSpace=wrap;rounded=0;" parent="1" vertex="1">
          <mxGeometry x="638" y="-285" width="60" height="30" as="geometry" />
        </mxCell>
        <mxCell id="t8fxPtUpH1gHO733P13p-174" value="|&lt;br&gt;\" style="rounded=0;whiteSpace=wrap;html=1;" parent="1" vertex="1">
          <mxGeometry x="688" y="-290" width="52" height="40" as="geometry" />
        </mxCell>
        <mxCell id="t8fxPtUpH1gHO733P13p-175" value="" style="whiteSpace=wrap;html=1;aspect=fixed;" parent="1" vertex="1">
          <mxGeometry x="148" y="-40" width="40" height="40" as="geometry" />
        </mxCell>
        <mxCell id="t8fxPtUpH1gHO733P13p-177" value="" style="whiteSpace=wrap;html=1;aspect=fixed;" parent="1" vertex="1">
          <mxGeometry x="188" y="-40" width="40" height="40" as="geometry" />
        </mxCell>
        <mxCell id="t8fxPtUpH1gHO733P13p-179" value="" style="whiteSpace=wrap;html=1;aspect=fixed;" parent="1" vertex="1">
          <mxGeometry x="228" y="-40" width="40" height="40" as="geometry" />
        </mxCell>
        <mxCell id="t8fxPtUpH1gHO733P13p-181" value="" style="whiteSpace=wrap;html=1;aspect=fixed;" parent="1" vertex="1">
          <mxGeometry x="268" y="-40" width="40" height="40" as="geometry" />
        </mxCell>
        <mxCell id="t8fxPtUpH1gHO733P13p-183" value="" style="whiteSpace=wrap;html=1;aspect=fixed;" parent="1" vertex="1">
          <mxGeometry x="305" y="-40" width="40" height="40" as="geometry" />
        </mxCell>
        <mxCell id="t8fxPtUpH1gHO733P13p-185" value="" style="whiteSpace=wrap;html=1;aspect=fixed;" parent="1" vertex="1">
          <mxGeometry x="158" width="40" height="40" as="geometry" />
        </mxCell>
        <mxCell id="t8fxPtUpH1gHO733P13p-187" value="" style="whiteSpace=wrap;html=1;aspect=fixed;" parent="1" vertex="1">
          <mxGeometry x="198" width="40" height="40" as="geometry" />
        </mxCell>
        <mxCell id="t8fxPtUpH1gHO733P13p-189" value="" style="whiteSpace=wrap;html=1;aspect=fixed;" parent="1" vertex="1">
          <mxGeometry x="238" width="40" height="40" as="geometry" />
        </mxCell>
        <mxCell id="t8fxPtUpH1gHO733P13p-191" value="" style="whiteSpace=wrap;html=1;aspect=fixed;" parent="1" vertex="1">
          <mxGeometry x="278" width="40" height="40" as="geometry" />
        </mxCell>
        <mxCell id="t8fxPtUpH1gHO733P13p-193" value="" style="whiteSpace=wrap;html=1;aspect=fixed;" parent="1" vertex="1">
          <mxGeometry x="318" width="40" height="40" as="geometry" />
        </mxCell>
        <mxCell id="t8fxPtUpH1gHO733P13p-195" value="" style="whiteSpace=wrap;html=1;aspect=fixed;" parent="1" vertex="1">
          <mxGeometry x="178" y="40" width="40" height="40" as="geometry" />
        </mxCell>
        <mxCell id="t8fxPtUpH1gHO733P13p-197" value="" style="whiteSpace=wrap;html=1;aspect=fixed;" parent="1" vertex="1">
          <mxGeometry x="218" y="40" width="40" height="40" as="geometry" />
        </mxCell>
        <mxCell id="t8fxPtUpH1gHO733P13p-199" value="" style="whiteSpace=wrap;html=1;aspect=fixed;" parent="1" vertex="1">
          <mxGeometry x="258" y="40" width="40" height="40" as="geometry" />
        </mxCell>
        <mxCell id="t8fxPtUpH1gHO733P13p-201" value="" style="whiteSpace=wrap;html=1;aspect=fixed;" parent="1" vertex="1">
          <mxGeometry x="298" y="40" width="40" height="40" as="geometry" />
        </mxCell>
        <mxCell id="t8fxPtUpH1gHO733P13p-203" value="" style="whiteSpace=wrap;html=1;aspect=fixed;" parent="1" vertex="1">
          <mxGeometry x="338" y="40" width="40" height="40" as="geometry" />
        </mxCell>
        <mxCell id="t8fxPtUpH1gHO733P13p-205" value="" style="whiteSpace=wrap;html=1;aspect=fixed;" parent="1" vertex="1">
          <mxGeometry x="408" y="-40" width="40" height="40" as="geometry" />
        </mxCell>
        <mxCell id="t8fxPtUpH1gHO733P13p-206" value="+&lt;br&gt;=" style="text;html=1;strokeColor=none;fillColor=none;align=center;verticalAlign=middle;whiteSpace=wrap;rounded=0;" parent="1" vertex="1">
          <mxGeometry x="398" y="-35" width="60" height="30" as="geometry" />
        </mxCell>
        <mxCell id="t8fxPtUpH1gHO733P13p-207" value="" style="whiteSpace=wrap;html=1;aspect=fixed;" parent="1" vertex="1">
          <mxGeometry x="418" width="40" height="40" as="geometry" />
        </mxCell>
        <mxCell id="t8fxPtUpH1gHO733P13p-208" value="_&lt;br&gt;-" style="text;html=1;strokeColor=none;fillColor=none;align=center;verticalAlign=middle;whiteSpace=wrap;rounded=0;" parent="1" vertex="1">
          <mxGeometry x="408" y="5" width="60" height="30" as="geometry" />
        </mxCell>
        <mxCell id="t8fxPtUpH1gHO733P13p-209" value="" style="whiteSpace=wrap;html=1;aspect=fixed;" parent="1" vertex="1">
          <mxGeometry x="438" y="40" width="40" height="40" as="geometry" />
        </mxCell>
        <mxCell id="t8fxPtUpH1gHO733P13p-210" value="Ã&lt;br&gt;Ã±" style="text;html=1;strokeColor=none;fillColor=none;align=center;verticalAlign=middle;whiteSpace=wrap;rounded=0;" parent="1" vertex="1">
          <mxGeometry x="428" y="45" width="60" height="30" as="geometry" />
        </mxCell>
        <mxCell id="t8fxPtUpH1gHO733P13p-211" value="" style="whiteSpace=wrap;html=1;aspect=fixed;" parent="1" vertex="1">
          <mxGeometry x="448" y="-40" width="40" height="40" as="geometry" />
        </mxCell>
        <mxCell id="t8fxPtUpH1gHO733P13p-212" value="&amp;amp;&lt;br&gt;7" style="text;html=1;strokeColor=none;fillColor=none;align=center;verticalAlign=middle;whiteSpace=wrap;rounded=0;" parent="1" vertex="1">
          <mxGeometry x="438" y="-35" width="60" height="30" as="geometry" />
        </mxCell>
        <mxCell id="t8fxPtUpH1gHO733P13p-213" value="" style="whiteSpace=wrap;html=1;aspect=fixed;" parent="1" vertex="1">
          <mxGeometry x="488" y="-40" width="40" height="40" as="geometry" />
        </mxCell>
        <mxCell id="t8fxPtUpH1gHO733P13p-214" value="*&lt;br&gt;8" style="text;html=1;strokeColor=none;fillColor=none;align=center;verticalAlign=middle;whiteSpace=wrap;rounded=0;" parent="1" vertex="1">
          <mxGeometry x="478" y="-35" width="60" height="30" as="geometry" />
        </mxCell>
        <mxCell id="t8fxPtUpH1gHO733P13p-215" value="" style="whiteSpace=wrap;html=1;aspect=fixed;" parent="1" vertex="1">
          <mxGeometry x="528" y="-40" width="40" height="40" as="geometry" />
        </mxCell>
        <mxCell id="t8fxPtUpH1gHO733P13p-216" value="(&lt;br&gt;9" style="text;html=1;strokeColor=none;fillColor=none;align=center;verticalAlign=middle;whiteSpace=wrap;rounded=0;" parent="1" vertex="1">
          <mxGeometry x="518" y="-35" width="60" height="30" as="geometry" />
        </mxCell>
        <mxCell id="t8fxPtUpH1gHO733P13p-217" value="" style="whiteSpace=wrap;html=1;aspect=fixed;" parent="1" vertex="1">
          <mxGeometry x="568" y="-40" width="40" height="40" as="geometry" />
        </mxCell>
        <mxCell id="t8fxPtUpH1gHO733P13p-218" value=")&lt;br&gt;0" style="text;html=1;strokeColor=none;fillColor=none;align=center;verticalAlign=middle;whiteSpace=wrap;rounded=0;" parent="1" vertex="1">
          <mxGeometry x="558" y="-35" width="60" height="30" as="geometry" />
        </mxCell>
        <mxCell id="t8fxPtUpH1gHO733P13p-219" value="" style="whiteSpace=wrap;html=1;aspect=fixed;" parent="1" vertex="1">
          <mxGeometry x="498" width="40" height="40" as="geometry" />
        </mxCell>
        <mxCell id="t8fxPtUpH1gHO733P13p-220" value="%&lt;br&gt;5" style="text;html=1;strokeColor=none;fillColor=none;align=center;verticalAlign=middle;whiteSpace=wrap;rounded=0;" parent="1" vertex="1">
          <mxGeometry x="488" y="5" width="60" height="30" as="geometry" />
        </mxCell>
        <mxCell id="t8fxPtUpH1gHO733P13p-221" value="" style="whiteSpace=wrap;html=1;aspect=fixed;" parent="1" vertex="1">
          <mxGeometry x="538" width="40" height="40" as="geometry" />
        </mxCell>
        <mxCell id="t8fxPtUpH1gHO733P13p-222" value="^&lt;br&gt;6" style="text;html=1;strokeColor=none;fillColor=none;align=center;verticalAlign=middle;whiteSpace=wrap;rounded=0;" parent="1" vertex="1">
          <mxGeometry x="528" y="5" width="60" height="30" as="geometry" />
        </mxCell>
        <mxCell id="t8fxPtUpH1gHO733P13p-223" value="" style="whiteSpace=wrap;html=1;aspect=fixed;" parent="1" vertex="1">
          <mxGeometry x="578" width="40" height="40" as="geometry" />
        </mxCell>
        <mxCell id="t8fxPtUpH1gHO733P13p-224" value="Â¹&lt;br&gt;Â¡" style="text;html=1;strokeColor=none;fillColor=none;align=center;verticalAlign=middle;whiteSpace=wrap;rounded=0;" parent="1" vertex="1">
          <mxGeometry x="568" y="5" width="60" height="30" as="geometry" />
        </mxCell>
        <mxCell id="t8fxPtUpH1gHO733P13p-225" value="" style="whiteSpace=wrap;html=1;aspect=fixed;" parent="1" vertex="1">
          <mxGeometry x="458" width="40" height="40" as="geometry" />
        </mxCell>
        <mxCell id="t8fxPtUpH1gHO733P13p-226" value="$&lt;br&gt;4" style="text;html=1;strokeColor=none;fillColor=none;align=center;verticalAlign=middle;whiteSpace=wrap;rounded=0;" parent="1" vertex="1">
          <mxGeometry x="448" y="5" width="60" height="30" as="geometry" />
        </mxCell>
        <mxCell id="t8fxPtUpH1gHO733P13p-227" value="" style="whiteSpace=wrap;html=1;aspect=fixed;" parent="1" vertex="1">
          <mxGeometry x="518" y="40" width="40" height="40" as="geometry" />
        </mxCell>
        <mxCell id="t8fxPtUpH1gHO733P13p-228" value="@&lt;br&gt;2" style="text;html=1;strokeColor=none;fillColor=none;align=center;verticalAlign=middle;whiteSpace=wrap;rounded=0;" parent="1" vertex="1">
          <mxGeometry x="508" y="45" width="60" height="30" as="geometry" />
        </mxCell>
        <mxCell id="t8fxPtUpH1gHO733P13p-229" value="" style="whiteSpace=wrap;html=1;aspect=fixed;" parent="1" vertex="1">
          <mxGeometry x="558" y="40" width="40" height="40" as="geometry" />
        </mxCell>
        <mxCell id="t8fxPtUpH1gHO733P13p-230" value="#&lt;br&gt;3" style="text;html=1;strokeColor=none;fillColor=none;align=center;verticalAlign=middle;whiteSpace=wrap;rounded=0;" parent="1" vertex="1">
          <mxGeometry x="548" y="45" width="60" height="30" as="geometry" />
        </mxCell>
        <mxCell id="t8fxPtUpH1gHO733P13p-231" value="" style="whiteSpace=wrap;html=1;aspect=fixed;" parent="1" vertex="1">
          <mxGeometry x="598" y="40" width="40" height="40" as="geometry" />
        </mxCell>
        <mxCell id="t8fxPtUpH1gHO733P13p-232" value="&lt;br&gt;Â¿" style="text;html=1;strokeColor=none;fillColor=none;align=center;verticalAlign=middle;whiteSpace=wrap;rounded=0;" parent="1" vertex="1">
          <mxGeometry x="588" y="45" width="60" height="30" as="geometry" />
        </mxCell>
        <mxCell id="t8fxPtUpH1gHO733P13p-233" value="" style="whiteSpace=wrap;html=1;aspect=fixed;" parent="1" vertex="1">
          <mxGeometry x="478" y="40" width="40" height="40" as="geometry" />
        </mxCell>
        <mxCell id="t8fxPtUpH1gHO733P13p-234" value="!&lt;br&gt;1" style="text;html=1;strokeColor=none;fillColor=none;align=center;verticalAlign=middle;whiteSpace=wrap;rounded=0;" parent="1" vertex="1">
          <mxGeometry x="468" y="45" width="60" height="30" as="geometry" />
        </mxCell>
        <mxCell id="t8fxPtUpH1gHO733P13p-236" value="Shift" style="rounded=0;whiteSpace=wrap;html=1;" parent="1" vertex="1">
          <mxGeometry x="90" y="40" width="89" height="40" as="geometry" />
        </mxCell>
        <mxCell id="t8fxPtUpH1gHO733P13p-237" value="Ctrl" style="rounded=0;whiteSpace=wrap;html=1;" parent="1" vertex="1">
          <mxGeometry x="90" y="80" width="60" height="40" as="geometry" />
        </mxCell>
        <mxCell id="t8fxPtUpH1gHO733P13p-238" value="Super" style="rounded=0;whiteSpace=wrap;html=1;" parent="1" vertex="1">
          <mxGeometry x="150" y="80" width="60" height="40" as="geometry" />
        </mxCell>
        <mxCell id="t8fxPtUpH1gHO733P13p-239" value="Alt" style="rounded=0;whiteSpace=wrap;html=1;" parent="1" vertex="1">
          <mxGeometry x="210" y="80" width="60" height="40" as="geometry" />
        </mxCell>
        <mxCell id="t8fxPtUpH1gHO733P13p-240" value="Esc" style="rounded=0;whiteSpace=wrap;html=1;strokeColor=#7EA6E0;strokeWidth=2;" parent="1" vertex="1">
          <mxGeometry x="270" y="80" width="108" height="40" as="geometry" />
        </mxCell>
        <mxCell id="t8fxPtUpH1gHO733P13p-241" value="" style="whiteSpace=wrap;html=1;aspect=fixed;" parent="1" vertex="1">
          <mxGeometry x="608" y="-40" width="40" height="40" as="geometry" />
        </mxCell>
        <mxCell id="t8fxPtUpH1gHO733P13p-242" value="&lt;br&gt;Â«" style="text;html=1;strokeColor=none;fillColor=none;align=center;verticalAlign=middle;whiteSpace=wrap;rounded=0;" parent="1" vertex="1">
          <mxGeometry x="598" y="-35" width="60" height="30" as="geometry" />
        </mxCell>
        <mxCell id="t8fxPtUpH1gHO733P13p-243" value="" style="whiteSpace=wrap;html=1;aspect=fixed;" parent="1" vertex="1">
          <mxGeometry x="618" width="40" height="40" as="geometry" />
        </mxCell>
        <mxCell id="t8fxPtUpH1gHO733P13p-244" value="~&lt;br&gt;`" style="text;html=1;strokeColor=none;fillColor=none;align=center;verticalAlign=middle;whiteSpace=wrap;rounded=0;" parent="1" vertex="1">
          <mxGeometry x="608" y="5" width="60" height="30" as="geometry" />
        </mxCell>
        <mxCell id="t8fxPtUpH1gHO733P13p-246" value="Space" style="rounded=0;whiteSpace=wrap;html=1;" parent="1" vertex="1">
          <mxGeometry x="438" y="80" width="108" height="40" as="geometry" />
        </mxCell>
        <mxCell id="t8fxPtUpH1gHO733P13p-247" value="Alt" style="rounded=0;whiteSpace=wrap;html=1;" parent="1" vertex="1">
          <mxGeometry x="546" y="80" width="60" height="40" as="geometry" />
        </mxCell>
        <mxCell id="t8fxPtUpH1gHO733P13p-248" value="Super" style="rounded=0;whiteSpace=wrap;html=1;" parent="1" vertex="1">
          <mxGeometry x="606" y="80" width="60" height="40" as="geometry" />
        </mxCell>
        <mxCell id="t8fxPtUpH1gHO733P13p-249" value="Ctrl" style="rounded=0;whiteSpace=wrap;html=1;" parent="1" vertex="1">
          <mxGeometry x="666" y="80" width="74" height="40" as="geometry" />
        </mxCell>
        <mxCell id="t8fxPtUpH1gHO733P13p-250" value="Shift" style="rounded=0;whiteSpace=wrap;html=1;" parent="1" vertex="1">
          <mxGeometry x="638" y="40" width="102" height="40" as="geometry" />
        </mxCell>
        <mxCell id="t8fxPtUpH1gHO733P13p-251" value="Caps" style="rounded=0;whiteSpace=wrap;html=1;gradientColor=none;strokeColor=#7EA6E0;strokeWidth=2;" parent="1" vertex="1">
          <mxGeometry x="90" y="-40" width="58" height="40" as="geometry" />
        </mxCell>
        <mxCell id="t8fxPtUpH1gHO733P13p-252" value="" style="whiteSpace=wrap;html=1;aspect=fixed;" parent="1" vertex="1">
          <mxGeometry x="648" y="-40" width="40" height="40" as="geometry" />
        </mxCell>
        <mxCell id="t8fxPtUpH1gHO733P13p-253" value="&lt;br&gt;Â»" style="text;html=1;strokeColor=none;fillColor=none;align=center;verticalAlign=middle;whiteSpace=wrap;rounded=0;" parent="1" vertex="1">
          <mxGeometry x="638" y="-35" width="60" height="30" as="geometry" />
        </mxCell>
        <mxCell id="t8fxPtUpH1gHO733P13p-254" value="&lt;br&gt;â¬" style="rounded=0;whiteSpace=wrap;html=1;" parent="1" vertex="1">
          <mxGeometry x="688" y="-40" width="52" height="40" as="geometry" />
        </mxCell>
        <mxCell id="t8fxPtUpH1gHO733P13p-235" value="Mod1" style="rounded=0;whiteSpace=wrap;html=1;fillColor=#dae8fc;strokeColor=#6c8ebf;" parent="1" vertex="1">
          <mxGeometry x="90" width="68" height="40" as="geometry" />
        </mxCell>
        <mxCell id="t8fxPtUpH1gHO733P13p-256" value="" style="whiteSpace=wrap;html=1;aspect=fixed;" parent="1" vertex="1">
          <mxGeometry x="148" y="210" width="40" height="40" as="geometry" />
        </mxCell>
        <mxCell id="t8fxPtUpH1gHO733P13p-257" value="Mute" style="text;html=1;strokeColor=none;fillColor=none;align=center;verticalAlign=middle;whiteSpace=wrap;rounded=0;" parent="1" vertex="1">
          <mxGeometry x="138" y="215" width="60" height="30" as="geometry" />
        </mxCell>
        <mxCell id="t8fxPtUpH1gHO733P13p-258" value="" style="whiteSpace=wrap;html=1;aspect=fixed;" parent="1" vertex="1">
          <mxGeometry x="188" y="210" width="40" height="40" as="geometry" />
        </mxCell>
        <mxCell id="t8fxPtUpH1gHO733P13p-259" value="F7" style="text;html=1;strokeColor=none;fillColor=none;align=center;verticalAlign=middle;whiteSpace=wrap;rounded=0;" parent="1" vertex="1">
          <mxGeometry x="178" y="215" width="60" height="30" as="geometry" />
        </mxCell>
        <mxCell id="t8fxPtUpH1gHO733P13p-260" value="" style="whiteSpace=wrap;html=1;aspect=fixed;" parent="1" vertex="1">
          <mxGeometry x="228" y="210" width="40" height="40" as="geometry" />
        </mxCell>
        <mxCell id="t8fxPtUpH1gHO733P13p-261" value="F8" style="text;html=1;strokeColor=none;fillColor=none;align=center;verticalAlign=middle;whiteSpace=wrap;rounded=0;" parent="1" vertex="1">
          <mxGeometry x="218" y="215" width="60" height="30" as="geometry" />
        </mxCell>
        <mxCell id="t8fxPtUpH1gHO733P13p-262" value="" style="whiteSpace=wrap;html=1;aspect=fixed;" parent="1" vertex="1">
          <mxGeometry x="268" y="210" width="40" height="40" as="geometry" />
        </mxCell>
        <mxCell id="t8fxPtUpH1gHO733P13p-263" value="F9" style="text;html=1;strokeColor=none;fillColor=none;align=center;verticalAlign=middle;whiteSpace=wrap;rounded=0;" parent="1" vertex="1">
          <mxGeometry x="258" y="215" width="60" height="30" as="geometry" />
        </mxCell>
        <mxCell id="t8fxPtUpH1gHO733P13p-264" value="" style="whiteSpace=wrap;html=1;aspect=fixed;" parent="1" vertex="1">
          <mxGeometry x="305" y="210" width="40" height="40" as="geometry" />
        </mxCell>
        <mxCell id="t8fxPtUpH1gHO733P13p-265" value="F10" style="text;html=1;strokeColor=none;fillColor=none;align=center;verticalAlign=middle;whiteSpace=wrap;rounded=0;" parent="1" vertex="1">
          <mxGeometry x="295" y="215" width="60" height="30" as="geometry" />
        </mxCell>
        <mxCell id="t8fxPtUpH1gHO733P13p-266" value="" style="whiteSpace=wrap;html=1;aspect=fixed;" parent="1" vertex="1">
          <mxGeometry x="158" y="250" width="40" height="40" as="geometry" />
        </mxCell>
        <mxCell id="t8fxPtUpH1gHO733P13p-267" value="Vol up" style="text;html=1;strokeColor=none;fillColor=none;align=center;verticalAlign=middle;whiteSpace=wrap;rounded=0;" parent="1" vertex="1">
          <mxGeometry x="148" y="255" width="60" height="30" as="geometry" />
        </mxCell>
        <mxCell id="t8fxPtUpH1gHO733P13p-268" value="" style="whiteSpace=wrap;html=1;aspect=fixed;" parent="1" vertex="1">
          <mxGeometry x="198" y="250" width="40" height="40" as="geometry" />
        </mxCell>
        <mxCell id="t8fxPtUpH1gHO733P13p-269" value="F4" style="text;html=1;strokeColor=none;fillColor=none;align=center;verticalAlign=middle;whiteSpace=wrap;rounded=0;" parent="1" vertex="1">
          <mxGeometry x="188" y="255" width="60" height="30" as="geometry" />
        </mxCell>
        <mxCell id="t8fxPtUpH1gHO733P13p-270" value="" style="whiteSpace=wrap;html=1;aspect=fixed;" parent="1" vertex="1">
          <mxGeometry x="238" y="250" width="40" height="40" as="geometry" />
        </mxCell>
        <mxCell id="t8fxPtUpH1gHO733P13p-271" value="F5" style="text;html=1;strokeColor=none;fillColor=none;align=center;verticalAlign=middle;whiteSpace=wrap;rounded=0;" parent="1" vertex="1">
          <mxGeometry x="228" y="255" width="60" height="30" as="geometry" />
        </mxCell>
        <mxCell id="t8fxPtUpH1gHO733P13p-272" value="" style="whiteSpace=wrap;html=1;aspect=fixed;" parent="1" vertex="1">
          <mxGeometry x="278" y="250" width="40" height="40" as="geometry" />
        </mxCell>
        <mxCell id="t8fxPtUpH1gHO733P13p-273" value="F6" style="text;html=1;strokeColor=none;fillColor=none;align=center;verticalAlign=middle;whiteSpace=wrap;rounded=0;" parent="1" vertex="1">
          <mxGeometry x="268" y="255" width="60" height="30" as="geometry" />
        </mxCell>
        <mxCell id="t8fxPtUpH1gHO733P13p-274" value="" style="whiteSpace=wrap;html=1;aspect=fixed;" parent="1" vertex="1">
          <mxGeometry x="318" y="250" width="40" height="40" as="geometry" />
        </mxCell>
        <mxCell id="t8fxPtUpH1gHO733P13p-275" value="F11" style="text;html=1;strokeColor=none;fillColor=none;align=center;verticalAlign=middle;whiteSpace=wrap;rounded=0;" parent="1" vertex="1">
          <mxGeometry x="308" y="255" width="60" height="30" as="geometry" />
        </mxCell>
        <mxCell id="t8fxPtUpH1gHO733P13p-276" value="" style="whiteSpace=wrap;html=1;aspect=fixed;" parent="1" vertex="1">
          <mxGeometry x="178" y="290" width="40" height="40" as="geometry" />
        </mxCell>
        <mxCell id="t8fxPtUpH1gHO733P13p-277" value="Vol down" style="text;html=1;strokeColor=none;fillColor=none;align=center;verticalAlign=middle;whiteSpace=wrap;rounded=0;" parent="1" vertex="1">
          <mxGeometry x="176" y="295" width="42" height="30" as="geometry" />
        </mxCell>
        <mxCell id="t8fxPtUpH1gHO733P13p-278" value="" style="whiteSpace=wrap;html=1;aspect=fixed;" parent="1" vertex="1">
          <mxGeometry x="218" y="290" width="40" height="40" as="geometry" />
        </mxCell>
        <mxCell id="t8fxPtUpH1gHO733P13p-279" value="F1" style="text;html=1;strokeColor=none;fillColor=none;align=center;verticalAlign=middle;whiteSpace=wrap;rounded=0;" parent="1" vertex="1">
          <mxGeometry x="208" y="295" width="60" height="30" as="geometry" />
        </mxCell>
        <mxCell id="t8fxPtUpH1gHO733P13p-280" value="" style="whiteSpace=wrap;html=1;aspect=fixed;" parent="1" vertex="1">
          <mxGeometry x="258" y="290" width="40" height="40" as="geometry" />
        </mxCell>
        <mxCell id="t8fxPtUpH1gHO733P13p-281" value="F2" style="text;html=1;strokeColor=none;fillColor=none;align=center;verticalAlign=middle;whiteSpace=wrap;rounded=0;" parent="1" vertex="1">
          <mxGeometry x="248" y="295" width="60" height="30" as="geometry" />
        </mxCell>
        <mxCell id="t8fxPtUpH1gHO733P13p-282" value="" style="whiteSpace=wrap;html=1;aspect=fixed;" parent="1" vertex="1">
          <mxGeometry x="298" y="290" width="40" height="40" as="geometry" />
        </mxCell>
        <mxCell id="t8fxPtUpH1gHO733P13p-283" value="F3" style="text;html=1;strokeColor=none;fillColor=none;align=center;verticalAlign=middle;whiteSpace=wrap;rounded=0;" parent="1" vertex="1">
          <mxGeometry x="288" y="295" width="60" height="30" as="geometry" />
        </mxCell>
        <mxCell id="t8fxPtUpH1gHO733P13p-284" value="" style="whiteSpace=wrap;html=1;aspect=fixed;" parent="1" vertex="1">
          <mxGeometry x="338" y="290" width="40" height="40" as="geometry" />
        </mxCell>
        <mxCell id="t8fxPtUpH1gHO733P13p-285" value="F12" style="text;html=1;strokeColor=none;fillColor=none;align=center;verticalAlign=middle;whiteSpace=wrap;rounded=0;" parent="1" vertex="1">
          <mxGeometry x="328" y="295" width="60" height="30" as="geometry" />
        </mxCell>
        <mxCell id="t8fxPtUpH1gHO733P13p-286" value="" style="whiteSpace=wrap;html=1;aspect=fixed;" parent="1" vertex="1">
          <mxGeometry x="408" y="210" width="40" height="40" as="geometry" />
        </mxCell>
        <mxCell id="t8fxPtUpH1gHO733P13p-288" value="" style="whiteSpace=wrap;html=1;aspect=fixed;" parent="1" vertex="1">
          <mxGeometry x="418" y="250" width="40" height="40" as="geometry" />
        </mxCell>
        <mxCell id="t8fxPtUpH1gHO733P13p-290" value="" style="whiteSpace=wrap;html=1;aspect=fixed;" parent="1" vertex="1">
          <mxGeometry x="438" y="290" width="40" height="40" as="geometry" />
        </mxCell>
        <mxCell id="t8fxPtUpH1gHO733P13p-292" value="" style="whiteSpace=wrap;html=1;aspect=fixed;" parent="1" vertex="1">
          <mxGeometry x="448" y="210" width="40" height="40" as="geometry" />
        </mxCell>
        <mxCell id="t8fxPtUpH1gHO733P13p-294" value="" style="whiteSpace=wrap;html=1;aspect=fixed;" parent="1" vertex="1">
          <mxGeometry x="488" y="210" width="40" height="40" as="geometry" />
        </mxCell>
        <mxCell id="t8fxPtUpH1gHO733P13p-296" value="" style="whiteSpace=wrap;html=1;aspect=fixed;" parent="1" vertex="1">
          <mxGeometry x="528" y="210" width="40" height="40" as="geometry" />
        </mxCell>
        <mxCell id="t8fxPtUpH1gHO733P13p-298" value="" style="whiteSpace=wrap;html=1;aspect=fixed;" parent="1" vertex="1">
          <mxGeometry x="568" y="210" width="40" height="40" as="geometry" />
        </mxCell>
        <mxCell id="t8fxPtUpH1gHO733P13p-300" value="" style="whiteSpace=wrap;html=1;aspect=fixed;" parent="1" vertex="1">
          <mxGeometry x="498" y="250" width="40" height="40" as="geometry" />
        </mxCell>
        <mxCell id="t8fxPtUpH1gHO733P13p-302" value="" style="whiteSpace=wrap;html=1;aspect=fixed;" parent="1" vertex="1">
          <mxGeometry x="538" y="250" width="40" height="40" as="geometry" />
        </mxCell>
        <mxCell id="t8fxPtUpH1gHO733P13p-304" value="" style="whiteSpace=wrap;html=1;aspect=fixed;" parent="1" vertex="1">
          <mxGeometry x="578" y="250" width="40" height="40" as="geometry" />
        </mxCell>
        <mxCell id="t8fxPtUpH1gHO733P13p-306" value="" style="whiteSpace=wrap;html=1;aspect=fixed;" parent="1" vertex="1">
          <mxGeometry x="458" y="250" width="40" height="40" as="geometry" />
        </mxCell>
        <mxCell id="t8fxPtUpH1gHO733P13p-308" value="" style="whiteSpace=wrap;html=1;aspect=fixed;" parent="1" vertex="1">
          <mxGeometry x="518" y="290" width="40" height="40" as="geometry" />
        </mxCell>
        <mxCell id="t8fxPtUpH1gHO733P13p-310" value="" style="whiteSpace=wrap;html=1;aspect=fixed;" parent="1" vertex="1">
          <mxGeometry x="558" y="290" width="40" height="40" as="geometry" />
        </mxCell>
        <mxCell id="t8fxPtUpH1gHO733P13p-312" value="" style="whiteSpace=wrap;html=1;aspect=fixed;" parent="1" vertex="1">
          <mxGeometry x="598" y="290" width="40" height="40" as="geometry" />
        </mxCell>
        <mxCell id="t8fxPtUpH1gHO733P13p-314" value="" style="whiteSpace=wrap;html=1;aspect=fixed;" parent="1" vertex="1">
          <mxGeometry x="478" y="290" width="40" height="40" as="geometry" />
        </mxCell>
        <mxCell id="t8fxPtUpH1gHO733P13p-317" value="" style="rounded=0;whiteSpace=wrap;html=1;strokeWidth=2;strokeColor=#7EA6E0;" parent="1" vertex="1">
          <mxGeometry x="90" y="290" width="89" height="40" as="geometry" />
        </mxCell>
        <mxCell id="t8fxPtUpH1gHO733P13p-319" value="" style="rounded=0;whiteSpace=wrap;html=1;strokeColor=#7EA6E0;strokeWidth=2;" parent="1" vertex="1">
          <mxGeometry x="150" y="330" width="60" height="40" as="geometry" />
        </mxCell>
        <mxCell id="t8fxPtUpH1gHO733P13p-320" value="Stop" style="rounded=0;whiteSpace=wrap;html=1;strokeWidth=2;strokeColor=#7EA6E0;" parent="1" vertex="1">
          <mxGeometry x="210" y="330" width="60" height="40" as="geometry" />
        </mxCell>
        <mxCell id="t8fxPtUpH1gHO733P13p-321" value="Play" style="rounded=0;whiteSpace=wrap;html=1;strokeColor=#7EA6E0;strokeWidth=2;" parent="1" vertex="1">
          <mxGeometry x="270" y="330" width="108" height="40" as="geometry" />
        </mxCell>
        <mxCell id="t8fxPtUpH1gHO733P13p-322" value="" style="whiteSpace=wrap;html=1;aspect=fixed;" parent="1" vertex="1">
          <mxGeometry x="608" y="210" width="40" height="40" as="geometry" />
        </mxCell>
        <mxCell id="t8fxPtUpH1gHO733P13p-324" value="" style="whiteSpace=wrap;html=1;aspect=fixed;" parent="1" vertex="1">
          <mxGeometry x="618" y="250" width="40" height="40" as="geometry" />
        </mxCell>
        <mxCell id="t8fxPtUpH1gHO733P13p-329" value="" style="rounded=0;whiteSpace=wrap;html=1;strokeWidth=2;strokeColor=#7EA6E0;" parent="1" vertex="1">
          <mxGeometry x="606" y="330" width="60" height="40" as="geometry" />
        </mxCell>
        <mxCell id="t8fxPtUpH1gHO733P13p-330" value="" style="rounded=0;whiteSpace=wrap;html=1;strokeColor=#7EA6E0;strokeWidth=2;" parent="1" vertex="1">
          <mxGeometry x="666" y="330" width="74" height="40" as="geometry" />
        </mxCell>
        <mxCell id="t8fxPtUpH1gHO733P13p-332" value="Next track" style="rounded=0;whiteSpace=wrap;html=1;strokeColor=#7EA6E0;strokeWidth=2;" parent="1" vertex="1">
          <mxGeometry x="90" y="210" width="58" height="40" as="geometry" />
        </mxCell>
        <mxCell id="t8fxPtUpH1gHO733P13p-333" value="" style="whiteSpace=wrap;html=1;aspect=fixed;" parent="1" vertex="1">
          <mxGeometry x="648" y="210" width="40" height="40" as="geometry" />
        </mxCell>
        <mxCell id="t8fxPtUpH1gHO733P13p-337" value="Enter" style="rounded=0;whiteSpace=wrap;html=1;strokeWidth=2;strokeColor=#7EA6E0;" parent="1" vertex="1">
          <mxGeometry x="688" y="210" width="52" height="40" as="geometry" />
        </mxCell>
        <mxCell id="t8fxPtUpH1gHO733P13p-245" value="Enter" style="rounded=0;whiteSpace=wrap;html=1;strokeColor=#7EA6E0;strokeWidth=2;" parent="1" vertex="1">
          <mxGeometry x="658" width="82" height="40" as="geometry" />
        </mxCell>
        <mxCell id="t8fxPtUpH1gHO733P13p-316" value="Prev track" style="rounded=0;whiteSpace=wrap;html=1;strokeWidth=2;strokeColor=#7EA6E0;" parent="1" vertex="1">
          <mxGeometry x="90" y="250" width="68" height="40" as="geometry" />
        </mxCell>
        <mxCell id="t8fxPtUpH1gHO733P13p-318" value="Media" style="rounded=0;whiteSpace=wrap;html=1;strokeColor=#7EA6E0;strokeWidth=2;" parent="1" vertex="1">
          <mxGeometry x="90" y="330" width="60" height="40" as="geometry" />
        </mxCell>
        <mxCell id="t8fxPtUpH1gHO733P13p-327" value="Print screen" style="rounded=0;whiteSpace=wrap;html=1;strokeWidth=2;strokeColor=#7EA6E0;" parent="1" vertex="1">
          <mxGeometry x="438" y="330" width="108" height="40" as="geometry" />
        </mxCell>
        <mxCell id="t8fxPtUpH1gHO733P13p-328" value="Insert" style="rounded=0;whiteSpace=wrap;html=1;strokeColor=#7EA6E0;strokeWidth=2;" parent="1" vertex="1">
          <mxGeometry x="546" y="330" width="60" height="40" as="geometry" />
        </mxCell>
        <mxCell id="t8fxPtUpH1gHO733P13p-326" value="Mod2" style="rounded=0;whiteSpace=wrap;html=1;fillColor=#dae8fc;strokeColor=#6c8ebf;" parent="1" vertex="1">
          <mxGeometry x="658" y="250" width="82" height="40" as="geometry" />
        </mxCell>
        <mxCell id="t8fxPtUpH1gHO733P13p-331" value="" style="rounded=0;whiteSpace=wrap;html=1;strokeColor=#7EA6E0;strokeWidth=2;" parent="1" vertex="1">
          <mxGeometry x="638" y="290" width="102" height="40" as="geometry" />
        </mxCell>
        <mxCell id="t8fxPtUpH1gHO733P13p-343" value="" style="whiteSpace=wrap;html=1;aspect=fixed;" parent="1" vertex="1">
          <mxGeometry x="148" y="460" width="40" height="40" as="geometry" />
        </mxCell>
        <mxCell id="t8fxPtUpH1gHO733P13p-345" value="" style="whiteSpace=wrap;html=1;aspect=fixed;" parent="1" vertex="1">
          <mxGeometry x="188" y="460" width="40" height="40" as="geometry" />
        </mxCell>
        <mxCell id="t8fxPtUpH1gHO733P13p-347" value="" style="whiteSpace=wrap;html=1;aspect=fixed;" parent="1" vertex="1">
          <mxGeometry x="228" y="460" width="40" height="40" as="geometry" />
        </mxCell>
        <mxCell id="t8fxPtUpH1gHO733P13p-349" value="" style="whiteSpace=wrap;html=1;aspect=fixed;" parent="1" vertex="1">
          <mxGeometry x="268" y="460" width="40" height="40" as="geometry" />
        </mxCell>
        <mxCell id="t8fxPtUpH1gHO733P13p-351" value="" style="whiteSpace=wrap;html=1;aspect=fixed;" parent="1" vertex="1">
          <mxGeometry x="305" y="460" width="40" height="40" as="geometry" />
        </mxCell>
        <mxCell id="t8fxPtUpH1gHO733P13p-353" value="" style="whiteSpace=wrap;html=1;aspect=fixed;" parent="1" vertex="1">
          <mxGeometry x="158" y="500" width="40" height="40" as="geometry" />
        </mxCell>
        <mxCell id="t8fxPtUpH1gHO733P13p-355" value="" style="whiteSpace=wrap;html=1;aspect=fixed;" parent="1" vertex="1">
          <mxGeometry x="198" y="500" width="40" height="40" as="geometry" />
        </mxCell>
        <mxCell id="t8fxPtUpH1gHO733P13p-357" value="" style="whiteSpace=wrap;html=1;aspect=fixed;" parent="1" vertex="1">
          <mxGeometry x="238" y="500" width="40" height="40" as="geometry" />
        </mxCell>
        <mxCell id="t8fxPtUpH1gHO733P13p-358" value="Bckspc" style="text;html=1;strokeColor=none;fillColor=none;align=center;verticalAlign=middle;whiteSpace=wrap;rounded=0;" parent="1" vertex="1">
          <mxGeometry x="228" y="505" width="60" height="30" as="geometry" />
        </mxCell>
        <mxCell id="t8fxPtUpH1gHO733P13p-359" value="" style="whiteSpace=wrap;html=1;aspect=fixed;" parent="1" vertex="1">
          <mxGeometry x="278" y="500" width="40" height="40" as="geometry" />
        </mxCell>
        <mxCell id="t8fxPtUpH1gHO733P13p-360" value="Pg down" style="text;html=1;strokeColor=none;fillColor=none;align=center;verticalAlign=middle;whiteSpace=wrap;rounded=0;" parent="1" vertex="1">
          <mxGeometry x="274" y="505" width="48" height="30" as="geometry" />
        </mxCell>
        <mxCell id="t8fxPtUpH1gHO733P13p-361" value="" style="whiteSpace=wrap;html=1;aspect=fixed;" parent="1" vertex="1">
          <mxGeometry x="318" y="500" width="40" height="40" as="geometry" />
        </mxCell>
        <mxCell id="t8fxPtUpH1gHO733P13p-363" value="" style="whiteSpace=wrap;html=1;aspect=fixed;" parent="1" vertex="1">
          <mxGeometry x="178" y="540" width="40" height="40" as="geometry" />
        </mxCell>
        <mxCell id="t8fxPtUpH1gHO733P13p-365" value="" style="whiteSpace=wrap;html=1;aspect=fixed;" parent="1" vertex="1">
          <mxGeometry x="218" y="540" width="40" height="40" as="geometry" />
        </mxCell>
        <mxCell id="t8fxPtUpH1gHO733P13p-367" value="" style="whiteSpace=wrap;html=1;aspect=fixed;" parent="1" vertex="1">
          <mxGeometry x="258" y="540" width="40" height="40" as="geometry" />
        </mxCell>
        <mxCell id="t8fxPtUpH1gHO733P13p-369" value="" style="whiteSpace=wrap;html=1;aspect=fixed;" parent="1" vertex="1">
          <mxGeometry x="298" y="540" width="40" height="40" as="geometry" />
        </mxCell>
        <mxCell id="t8fxPtUpH1gHO733P13p-371" value="" style="whiteSpace=wrap;html=1;aspect=fixed;" parent="1" vertex="1">
          <mxGeometry x="338" y="540" width="40" height="40" as="geometry" />
        </mxCell>
        <mxCell id="t8fxPtUpH1gHO733P13p-372" value="Pg up" style="text;html=1;strokeColor=none;fillColor=none;align=center;verticalAlign=middle;whiteSpace=wrap;rounded=0;" parent="1" vertex="1">
          <mxGeometry x="328" y="545" width="60" height="30" as="geometry" />
        </mxCell>
        <mxCell id="t8fxPtUpH1gHO733P13p-373" value="" style="whiteSpace=wrap;html=1;aspect=fixed;" parent="1" vertex="1">
          <mxGeometry x="408" y="460" width="40" height="40" as="geometry" />
        </mxCell>
        <mxCell id="t8fxPtUpH1gHO733P13p-375" value="" style="whiteSpace=wrap;html=1;aspect=fixed;" parent="1" vertex="1">
          <mxGeometry x="418" y="500" width="40" height="40" as="geometry" />
        </mxCell>
        <mxCell id="t8fxPtUpH1gHO733P13p-376" value="left" style="text;html=1;strokeColor=none;fillColor=none;align=center;verticalAlign=middle;whiteSpace=wrap;rounded=0;" parent="1" vertex="1">
          <mxGeometry x="408" y="505" width="60" height="30" as="geometry" />
        </mxCell>
        <mxCell id="t8fxPtUpH1gHO733P13p-377" value="" style="whiteSpace=wrap;html=1;aspect=fixed;" parent="1" vertex="1">
          <mxGeometry x="438" y="540" width="40" height="40" as="geometry" />
        </mxCell>
        <mxCell id="t8fxPtUpH1gHO733P13p-378" value="Bckspc" style="text;html=1;strokeColor=none;fillColor=none;align=center;verticalAlign=middle;whiteSpace=wrap;rounded=0;" parent="1" vertex="1">
          <mxGeometry x="428" y="545" width="60" height="30" as="geometry" />
        </mxCell>
        <mxCell id="t8fxPtUpH1gHO733P13p-379" value="" style="whiteSpace=wrap;html=1;aspect=fixed;" parent="1" vertex="1">
          <mxGeometry x="448" y="460" width="40" height="40" as="geometry" />
        </mxCell>
        <mxCell id="t8fxPtUpH1gHO733P13p-381" value="" style="whiteSpace=wrap;html=1;aspect=fixed;" parent="1" vertex="1">
          <mxGeometry x="488" y="460" width="40" height="40" as="geometry" />
        </mxCell>
        <mxCell id="t8fxPtUpH1gHO733P13p-383" value="" style="whiteSpace=wrap;html=1;aspect=fixed;" parent="1" vertex="1">
          <mxGeometry x="528" y="460" width="40" height="40" as="geometry" />
        </mxCell>
        <mxCell id="t8fxPtUpH1gHO733P13p-384" value="Enter" style="text;html=1;strokeColor=none;fillColor=none;align=center;verticalAlign=middle;whiteSpace=wrap;rounded=0;" parent="1" vertex="1">
          <mxGeometry x="518" y="465" width="60" height="30" as="geometry" />
        </mxCell>
        <mxCell id="t8fxPtUpH1gHO733P13p-385" value="" style="whiteSpace=wrap;html=1;aspect=fixed;" parent="1" vertex="1">
          <mxGeometry x="568" y="460" width="40" height="40" as="geometry" />
        </mxCell>
        <mxCell id="t8fxPtUpH1gHO733P13p-387" value="" style="whiteSpace=wrap;html=1;aspect=fixed;" parent="1" vertex="1">
          <mxGeometry x="498" y="500" width="40" height="40" as="geometry" />
        </mxCell>
        <mxCell id="t8fxPtUpH1gHO733P13p-388" value="up" style="text;html=1;strokeColor=none;fillColor=none;align=center;verticalAlign=middle;whiteSpace=wrap;rounded=0;" parent="1" vertex="1">
          <mxGeometry x="488" y="505" width="60" height="30" as="geometry" />
        </mxCell>
        <mxCell id="t8fxPtUpH1gHO733P13p-389" value="" style="whiteSpace=wrap;html=1;aspect=fixed;" parent="1" vertex="1">
          <mxGeometry x="538" y="500" width="40" height="40" as="geometry" />
        </mxCell>
        <mxCell id="t8fxPtUpH1gHO733P13p-390" value="right" style="text;html=1;strokeColor=none;fillColor=none;align=center;verticalAlign=middle;whiteSpace=wrap;rounded=0;" parent="1" vertex="1">
          <mxGeometry x="528" y="505" width="60" height="30" as="geometry" />
        </mxCell>
        <mxCell id="t8fxPtUpH1gHO733P13p-391" value="Esc" style="whiteSpace=wrap;html=1;aspect=fixed;" parent="1" vertex="1">
          <mxGeometry x="578" y="500" width="40" height="40" as="geometry" />
        </mxCell>
        <mxCell id="t8fxPtUpH1gHO733P13p-393" value="" style="whiteSpace=wrap;html=1;aspect=fixed;" parent="1" vertex="1">
          <mxGeometry x="458" y="500" width="40" height="40" as="geometry" />
        </mxCell>
        <mxCell id="t8fxPtUpH1gHO733P13p-394" value="down" style="text;html=1;strokeColor=none;fillColor=none;align=center;verticalAlign=middle;whiteSpace=wrap;rounded=0;" parent="1" vertex="1">
          <mxGeometry x="448" y="505" width="60" height="30" as="geometry" />
        </mxCell>
        <mxCell id="t8fxPtUpH1gHO733P13p-395" value="" style="whiteSpace=wrap;html=1;aspect=fixed;" parent="1" vertex="1">
          <mxGeometry x="518" y="540" width="40" height="40" as="geometry" />
        </mxCell>
        <mxCell id="t8fxPtUpH1gHO733P13p-396" value="Home" style="text;html=1;strokeColor=none;fillColor=none;align=center;verticalAlign=middle;whiteSpace=wrap;rounded=0;" parent="1" vertex="1">
          <mxGeometry x="508" y="545" width="60" height="30" as="geometry" />
        </mxCell>
        <mxCell id="t8fxPtUpH1gHO733P13p-397" value="" style="whiteSpace=wrap;html=1;aspect=fixed;" parent="1" vertex="1">
          <mxGeometry x="558" y="540" width="40" height="40" as="geometry" />
        </mxCell>
        <mxCell id="t8fxPtUpH1gHO733P13p-398" value="End" style="text;html=1;strokeColor=none;fillColor=none;align=center;verticalAlign=middle;whiteSpace=wrap;rounded=0;" parent="1" vertex="1">
          <mxGeometry x="548" y="545" width="60" height="30" as="geometry" />
        </mxCell>
        <mxCell id="t8fxPtUpH1gHO733P13p-399" value="" style="whiteSpace=wrap;html=1;aspect=fixed;" parent="1" vertex="1">
          <mxGeometry x="598" y="540" width="40" height="40" as="geometry" />
        </mxCell>
        <mxCell id="t8fxPtUpH1gHO733P13p-401" value="" style="whiteSpace=wrap;html=1;aspect=fixed;" parent="1" vertex="1">
          <mxGeometry x="478" y="540" width="40" height="40" as="geometry" />
        </mxCell>
        <mxCell id="t8fxPtUpH1gHO733P13p-402" value="Del" style="text;html=1;strokeColor=none;fillColor=none;align=center;verticalAlign=middle;whiteSpace=wrap;rounded=0;" parent="1" vertex="1">
          <mxGeometry x="468" y="545" width="60" height="30" as="geometry" />
        </mxCell>
        <mxCell id="t8fxPtUpH1gHO733P13p-404" value="Shift" style="rounded=0;whiteSpace=wrap;html=1;" parent="1" vertex="1">
          <mxGeometry x="90" y="540" width="89" height="40" as="geometry" />
        </mxCell>
        <mxCell id="t8fxPtUpH1gHO733P13p-405" value="Ctrl" style="rounded=0;whiteSpace=wrap;html=1;" parent="1" vertex="1">
          <mxGeometry x="90" y="580" width="60" height="40" as="geometry" />
        </mxCell>
        <mxCell id="t8fxPtUpH1gHO733P13p-406" value="Super" style="rounded=0;whiteSpace=wrap;html=1;" parent="1" vertex="1">
          <mxGeometry x="150" y="580" width="60" height="40" as="geometry" />
        </mxCell>
        <mxCell id="t8fxPtUpH1gHO733P13p-407" value="Alt" style="rounded=0;whiteSpace=wrap;html=1;" parent="1" vertex="1">
          <mxGeometry x="210" y="580" width="60" height="40" as="geometry" />
        </mxCell>
        <mxCell id="t8fxPtUpH1gHO733P13p-408" value="Mod3" style="rounded=0;whiteSpace=wrap;html=1;fillColor=#dae8fc;strokeColor=#6c8ebf;" parent="1" vertex="1">
          <mxGeometry x="270" y="580" width="108" height="40" as="geometry" />
        </mxCell>
        <mxCell id="t8fxPtUpH1gHO733P13p-409" value="" style="whiteSpace=wrap;html=1;aspect=fixed;" parent="1" vertex="1">
          <mxGeometry x="608" y="460" width="40" height="40" as="geometry" />
        </mxCell>
        <mxCell id="t8fxPtUpH1gHO733P13p-411" value="" style="whiteSpace=wrap;html=1;aspect=fixed;" parent="1" vertex="1">
          <mxGeometry x="618" y="500" width="40" height="40" as="geometry" />
        </mxCell>
        <mxCell id="t8fxPtUpH1gHO733P13p-415" value="Alt" style="rounded=0;whiteSpace=wrap;html=1;" parent="1" vertex="1">
          <mxGeometry x="546" y="580" width="60" height="40" as="geometry" />
        </mxCell>
        <mxCell id="t8fxPtUpH1gHO733P13p-416" value="Super" style="rounded=0;whiteSpace=wrap;html=1;" parent="1" vertex="1">
          <mxGeometry x="606" y="580" width="60" height="40" as="geometry" />
        </mxCell>
        <mxCell id="t8fxPtUpH1gHO733P13p-417" value="Ctrl" style="rounded=0;whiteSpace=wrap;html=1;" parent="1" vertex="1">
          <mxGeometry x="666" y="580" width="74" height="40" as="geometry" />
        </mxCell>
        <mxCell id="t8fxPtUpH1gHO733P13p-418" value="Shift" style="rounded=0;whiteSpace=wrap;html=1;" parent="1" vertex="1">
          <mxGeometry x="638" y="540" width="102" height="40" as="geometry" />
        </mxCell>
        <mxCell id="t8fxPtUpH1gHO733P13p-419" value="Tab" style="rounded=0;whiteSpace=wrap;html=1;" parent="1" vertex="1">
          <mxGeometry x="90" y="460" width="58" height="40" as="geometry" />
        </mxCell>
        <mxCell id="t8fxPtUpH1gHO733P13p-420" value="" style="whiteSpace=wrap;html=1;aspect=fixed;" parent="1" vertex="1">
          <mxGeometry x="648" y="460" width="40" height="40" as="geometry" />
        </mxCell>
        <mxCell id="t8fxPtUpH1gHO733P13p-422" value="" style="rounded=0;whiteSpace=wrap;html=1;strokeWidth=2;strokeColor=#7EA6E0;" parent="1" vertex="1">
          <mxGeometry x="688" y="460" width="52" height="40" as="geometry" />
        </mxCell>
        <mxCell id="t8fxPtUpH1gHO733P13p-414" value="Tab" style="rounded=0;whiteSpace=wrap;html=1;strokeColor=#7EA6E0;strokeWidth=2;" parent="1" vertex="1">
          <mxGeometry x="438" y="580" width="108" height="40" as="geometry" />
        </mxCell>
        <mxCell id="t8fxPtUpH1gHO733P13p-403" value="" style="rounded=0;whiteSpace=wrap;html=1;strokeWidth=2;strokeColor=#7EA6E0;" parent="1" vertex="1">
          <mxGeometry x="90" y="500" width="68" height="40" as="geometry" />
        </mxCell>
        <mxCell id="t8fxPtUpH1gHO733P13p-413" value="Enter" style="rounded=0;whiteSpace=wrap;html=1;strokeWidth=2;strokeColor=#7EA6E0;" parent="1" vertex="1">
          <mxGeometry x="658" y="500" width="82" height="40" as="geometry" />
        </mxCell>
        <mxCell id="t8fxPtUpH1gHO733P13p-425" value="Base layer" style="text;html=1;strokeColor=none;fillColor=none;align=center;verticalAlign=middle;whiteSpace=wrap;rounded=0;fontSize=16;" parent="1" vertex="1">
          <mxGeometry x="84" y="-340" width="92" height="30" as="geometry" />
        </mxCell>
        <mxCell id="t8fxPtUpH1gHO733P13p-427" value="Symbol layer" style="text;html=1;strokeColor=none;fillColor=none;align=center;verticalAlign=middle;whiteSpace=wrap;rounded=0;fontSize=16;" parent="1" vertex="1">
          <mxGeometry x="90" y="-90" width="100" height="30" as="geometry" />
        </mxCell>
        <mxCell id="t8fxPtUpH1gHO733P13p-429" value="Function layer" style="text;html=1;strokeColor=none;fillColor=none;align=center;verticalAlign=middle;whiteSpace=wrap;rounded=0;fontSize=16;" parent="1" vertex="1">
          <mxGeometry x="90" y="160" width="106" height="30" as="geometry" />
        </mxCell>
        <mxCell id="t8fxPtUpH1gHO733P13p-431" value="Navigation layer" style="text;html=1;strokeColor=none;fillColor=none;align=center;verticalAlign=middle;whiteSpace=wrap;rounded=0;fontSize=16;" parent="1" vertex="1">
          <mxGeometry x="90" y="410" width="120" height="30" as="geometry" />
        </mxCell>
      </root>
    </mxGraphModel>
  </diagram>
</mxfile>
